<svg xmlns="http://www.w3.org/2000/svg" width="29.479" height="19.633" viewBox="0 0 29.479 19.633"><path d="M27.967,0H1.512A1.515,1.515,0,0,0,0,1.509V18.122a1.515,1.515,0,0,0,1.512,1.51H27.967a1.515,1.515,0,0,0,1.512-1.51V1.509A1.515,1.515,0,0,0,27.967,0ZM27.4,1.132,15.609,9.967a1.582,1.582,0,0,1-1.739,0L2.079,1.132ZM21.1,10.55l6.425,7.929c.006.008.014.014.021.021H1.931c.007-.008.015-.013.021-.021L8.377,10.55A.567.567,0,0,0,7.5,9.837L1.134,17.688V1.839L13.19,10.873a2.708,2.708,0,0,0,3.1,0L28.344,1.839V17.688L21.983,9.837a.567.567,0,0,0-.881.713Z" transform="translate(0 0.001)"/></svg>