<svg xmlns="http://www.w3.org/2000/svg" width="330.918" height="56.193" viewBox="0 0 330.918 56.193"><defs><style>.a,.b{fill:#fff;}.a{fill-rule:evenodd;}</style></defs><g transform="translate(0 -0.386)"><path class="a" d="M28.4.386,57.873,56.579H0Zm.063,8.361L6.236,52.727H16.244l12.117-25.5,13.171,25.5h10Zm8.76,43.98L28.5,35.844,20.481,52.727Z" transform="translate(0 0)"/><path class="b" d="M61.58,5.2,48.3,43.99H38.353L18.538,5.2H33.775L48.263,31.177,56.88,5.2Z" transform="translate(39.335 10.226)"/><path class="b" d="M62.848,30.524l5.758,1.655q-.9,13.428-16.138,13.429-19.741,0-19.741-19.354,0-9.388,5.248-15.391a17.045,17.045,0,0,1,13.435-6q17.117,0,17.117,21.7H47.689q0,15.237,7.873,15.237,7.364,0,7.364-8.619Q62.926,32.025,62.848,30.524Zm-15.2-8.311h8.539q0-13.544-4.152-13.544-3.76,0-4.23,10.043Z" transform="translate(69.442 9.493)"/><path class="b" d="M60.424.558V53.85h-14.3V1.328Q52.041,1.328,60.424.558Z" transform="translate(97.875 0.366)"/><path class="b" d="M72.25,4.884q19.584,0,19.584,20.316T72.25,45.516q-19.624,0-19.624-20.316T72.25,4.884Zm-.039,3.424q-4.739,0-4.74,16.892t4.74,16.891q4.779,0,4.779-16.891T72.211,8.309Z" transform="translate(111.665 9.546)"/><path class="b" d="M96.414,27.434l6.032,1.808.039,1.577q0,14.775-16.451,14.775-19.506,0-19.506-19.431,0-9.735,5.68-15.507,5.68-5.81,15.237-5.81,13.749,0,13.748,12.236l-6.7,3.194.078-3.694q0-8.311-5.68-8.311-7.52,0-7.52,16.314,0,10.081,1.606,13.852a5.92,5.92,0,0,0,5.954,3.732q7.951,0,7.951-10.12A35.962,35.962,0,0,0,96.414,27.434Z" transform="translate(141.163 9.467)"/><path class="b" d="M79.627,53.876V1.354a142.784,142.784,0,0,0,14.3-.808v21.2q4.622-7.657,13.043-7.657,9.949,0,9.949,8.773V53.876h-14.3V24.4q0-3.348-2.272-3.348-2.35,0-4.387,4.309a21.087,21.087,0,0,0-2.037,9.2V53.876Z" transform="translate(168.957 0.34)"/><path class="b" d="M101.44.386q6.659,0,6.659,5.079t-6.659,5.079q-6.658,0-6.659-5.079T101.44.386Zm-7.246,53.83V15.469a105.821,105.821,0,0,0,14.3-1.039V54.216Z" transform="translate(199.866 0)"/><path class="b" d="M108.669.386q6.659,0,6.659,5.079t-6.659,5.079q-6.659,0-6.659-5.079T108.669.386Zm-7.249,53.83V15.469a105.829,105.829,0,0,0,14.3-1.039V54.216Z" transform="translate(215.2 0)"/></g></svg>